<?xml version="1.0" encoding="UTF-8" standalone="no"?>
<!DOCTYPE svg PUBLIC "-//W3C//DTD SVG 1.1//EN"
 "http://www.w3.org/Graphics/SVG/1.1/DTD/svg11.dtd">
<!-- Generated by graphviz version 12.1.2 (20240928.0832)
 -->
<!-- Pages: 1 -->
<svg width="3515pt" height="260pt"
 viewBox="0.00 0.00 3514.58 260.00" xmlns="http://www.w3.org/2000/svg" xmlns:xlink="http://www.w3.org/1999/xlink">
<g id="graph0" class="graph" transform="scale(1 1) rotate(0) translate(4 256)">
<polygon fill="white" stroke="none" points="-4,4 -4,-256 3510.58,-256 3510.58,4 -4,4"/>
<!-- Чёрная металлургия -->
<g id="node1" class="node">
<title>Чёрная металлургия</title>
<ellipse fill="none" stroke="black" cx="1866.79" cy="-234" rx="92.81" ry="18"/>
<text text-anchor="middle" x="1866.79" y="-228.95" font-family="Times New Roman,serif" font-size="14.00">Чёрная металлургия</text>
</g>
<!-- История производства и использования железа -->
<g id="node2" class="node">
<title>История производства и использования железа</title>
<ellipse fill="none" stroke="black" cx="854.79" cy="-162" rx="201.31" ry="18"/>
<text text-anchor="middle" x="854.79" y="-156.95" font-family="Times New Roman,serif" font-size="14.00">История производства и использования железа</text>
</g>
<!-- Чёрная металлургия&#45;&gt;История производства и использования железа -->
<g id="edge1" class="edge">
<title>Чёрная металлургия&#45;&gt;История производства и использования железа</title>
<path fill="none" stroke="black" d="M1780.51,-227.03C1612.55,-215.41 1239.1,-189.58 1021.34,-174.52"/>
<polygon fill="black" stroke="black" points="1021.85,-171.05 1011.63,-173.85 1021.37,-178.03 1021.85,-171.05"/>
</g>
<!-- История металлургии Урала -->
<g id="node3" class="node">
<title>История металлургии Урала</title>
<ellipse fill="none" stroke="black" cx="1599.79" cy="-162" rx="124.54" ry="18"/>
<text text-anchor="middle" x="1599.79" y="-156.95" font-family="Times New Roman,serif" font-size="14.00">История металлургии Урала</text>
</g>
<!-- Чёрная металлургия&#45;&gt;История металлургии Урала -->
<g id="edge2" class="edge">
<title>Чёрная металлургия&#45;&gt;История металлургии Урала</title>
<path fill="none" stroke="black" d="M1813.08,-218.92C1771.67,-208.06 1714.07,-192.96 1669.17,-181.19"/>
<polygon fill="black" stroke="black" points="1670.07,-177.81 1659.51,-178.66 1668.3,-184.58 1670.07,-177.81"/>
</g>
<!-- Список стран по выплавке стали -->
<g id="node4" class="node">
<title>Список стран по выплавке стали</title>
<ellipse fill="none" stroke="black" cx="2134.79" cy="-162" rx="142.97" ry="18"/>
<text text-anchor="middle" x="2134.79" y="-156.95" font-family="Times New Roman,serif" font-size="14.00">Список стран по выплавке стали</text>
</g>
<!-- Чёрная металлургия&#45;&gt;Список стран по выплавке стали -->
<g id="edge3" class="edge">
<title>Чёрная металлургия&#45;&gt;Список стран по выплавке стали</title>
<path fill="none" stroke="black" d="M1920.7,-218.92C1961.71,-208.21 2018.52,-193.37 2063.31,-181.67"/>
<polygon fill="black" stroke="black" points="2064.17,-185.06 2072.96,-179.15 2062.4,-178.29 2064.17,-185.06"/>
</g>
<!-- Чёрная металлургия России -->
<g id="node5" class="node">
<title>Чёрная металлургия России</title>
<ellipse fill="none" stroke="black" cx="2671.79" cy="-162" rx="124.03" ry="18"/>
<text text-anchor="middle" x="2671.79" y="-156.95" font-family="Times New Roman,serif" font-size="14.00">Чёрная металлургия России</text>
</g>
<!-- Чёрная металлургия&#45;&gt;Чёрная металлургия России -->
<g id="edge4" class="edge">
<title>Чёрная металлургия&#45;&gt;Чёрная металлургия России</title>
<path fill="none" stroke="black" d="M1949.91,-225.77C2094.42,-213.21 2392.22,-187.31 2556.57,-173.02"/>
<polygon fill="black" stroke="black" points="2556.52,-176.54 2566.18,-172.18 2555.91,-169.56 2556.52,-176.54"/>
</g>
<!-- Кованое железо -->
<g id="node6" class="node">
<title>Кованое железо</title>
<ellipse fill="none" stroke="black" cx="85.79" cy="-90" rx="75.41" ry="18"/>
<text text-anchor="middle" x="85.79" y="-84.95" font-family="Times New Roman,serif" font-size="14.00">Кованое железо</text>
</g>
<!-- История производства и использования железа&#45;&gt;Кованое железо -->
<g id="edge5" class="edge">
<title>История производства и использования железа&#45;&gt;Кованое железо</title>
<path fill="none" stroke="black" d="M677.45,-153.25C538.78,-145.75 341.39,-131.91 169.79,-108 163.71,-107.15 157.41,-106.14 151.12,-105.03"/>
<polygon fill="black" stroke="black" points="151.81,-101.6 141.34,-103.23 150.54,-108.48 151.81,-101.6"/>
</g>
<!-- Диаграмма состояния сплавов железо&#45;углерод -->
<g id="node7" class="node">
<title>Диаграмма состояния сплавов железо&#45;углерод</title>
<ellipse fill="none" stroke="black" cx="377.79" cy="-90" rx="198.75" ry="18"/>
<text text-anchor="middle" x="377.79" y="-84.95" font-family="Times New Roman,serif" font-size="14.00">Диаграмма состояния сплавов железо&#45;углерод</text>
</g>
<!-- История производства и использования железа&#45;&gt;Диаграмма состояния сплавов железо&#45;углерод -->
<g id="edge6" class="edge">
<title>История производства и использования железа&#45;&gt;Диаграмма состояния сплавов железо&#45;углерод</title>
<path fill="none" stroke="black" d="M753.05,-146.07C675.96,-134.76 570.08,-119.22 490.44,-107.53"/>
<polygon fill="black" stroke="black" points="491.28,-104.12 480.88,-106.13 490.26,-111.04 491.28,-104.12"/>
</g>
<!-- Сыродутная печь -->
<g id="node8" class="node">
<title>Сыродутная печь</title>
<ellipse fill="none" stroke="black" cx="854.79" cy="-90" rx="81.04" ry="18"/>
<text text-anchor="middle" x="854.79" y="-84.95" font-family="Times New Roman,serif" font-size="14.00">Сыродутная печь</text>
</g>
<!-- История производства и использования железа&#45;&gt;Сыродутная печь -->
<g id="edge7" class="edge">
<title>История производства и использования железа&#45;&gt;Сыродутная печь</title>
<path fill="none" stroke="black" d="M854.79,-143.7C854.79,-136.41 854.79,-127.73 854.79,-119.54"/>
<polygon fill="black" stroke="black" points="858.29,-119.62 854.79,-109.62 851.29,-119.62 858.29,-119.62"/>
</g>
<!-- Доменная печь -->
<g id="node9" class="node">
<title>Доменная печь</title>
<ellipse fill="none" stroke="black" cx="1025.79" cy="-90" rx="72.34" ry="18"/>
<text text-anchor="middle" x="1025.79" y="-84.95" font-family="Times New Roman,serif" font-size="14.00">Доменная печь</text>
</g>
<!-- История производства и использования железа&#45;&gt;Доменная печь -->
<g id="edge8" class="edge">
<title>История производства и использования железа&#45;&gt;Доменная печь</title>
<path fill="none" stroke="black" d="M896.19,-144.05C921.21,-133.81 953.17,-120.73 979.09,-110.12"/>
<polygon fill="black" stroke="black" points="980.09,-113.49 988.02,-106.46 977.44,-107.01 980.09,-113.49"/>
</g>
<!-- Горнозаводские округа -->
<g id="node10" class="node">
<title>Горнозаводские округа</title>
<ellipse fill="none" stroke="black" cx="1218.79" cy="-90" rx="103.04" ry="18"/>
<text text-anchor="middle" x="1218.79" y="-84.95" font-family="Times New Roman,serif" font-size="14.00">Горнозаводские округа</text>
</g>
<!-- История металлургии Урала&#45;&gt;Горнозаводские округа -->
<g id="edge9" class="edge">
<title>История металлургии Урала&#45;&gt;Горнозаводские округа</title>
<path fill="none" stroke="black" d="M1524.97,-147.25C1459.93,-135.3 1365.93,-118.03 1299.27,-105.79"/>
<polygon fill="black" stroke="black" points="1299.95,-102.35 1289.48,-103.99 1298.68,-109.24 1299.95,-102.35"/>
</g>
<!-- Анна Иоанновна -->
<g id="node11" class="node">
<title>Анна Иоанновна</title>
<ellipse fill="none" stroke="black" cx="1418.79" cy="-90" rx="78.48" ry="18"/>
<text text-anchor="middle" x="1418.79" y="-84.95" font-family="Times New Roman,serif" font-size="14.00">Анна Иоанновна</text>
</g>
<!-- История металлургии Урала&#45;&gt;Анна Иоанновна -->
<g id="edge10" class="edge">
<title>История металлургии Урала&#45;&gt;Анна Иоанновна</title>
<path fill="none" stroke="black" d="M1557.81,-144.76C1531.05,-134.41 1496.25,-120.96 1468.17,-110.09"/>
<polygon fill="black" stroke="black" points="1469.76,-106.96 1459.17,-106.62 1467.24,-113.49 1469.76,-106.96"/>
</g>
<!-- Берг&#45;директориум -->
<g id="node12" class="node">
<title>Берг&#45;директориум</title>
<ellipse fill="none" stroke="black" cx="1599.79" cy="-90" rx="84.62" ry="18"/>
<text text-anchor="middle" x="1599.79" y="-84.95" font-family="Times New Roman,serif" font-size="14.00">Берг&#45;директориум</text>
</g>
<!-- История металлургии Урала&#45;&gt;Берг&#45;директориум -->
<g id="edge11" class="edge">
<title>История металлургии Урала&#45;&gt;Берг&#45;директориум</title>
<path fill="none" stroke="black" d="M1599.79,-143.7C1599.79,-136.41 1599.79,-127.73 1599.79,-119.54"/>
<polygon fill="black" stroke="black" points="1603.29,-119.62 1599.79,-109.62 1596.29,-119.62 1603.29,-119.62"/>
</g>
<!-- Богословский, Павел Степанович -->
<g id="node13" class="node">
<title>Богословский, Павел Степанович</title>
<ellipse fill="none" stroke="black" cx="1848.79" cy="-90" rx="146.04" ry="18"/>
<text text-anchor="middle" x="1848.79" y="-84.95" font-family="Times New Roman,serif" font-size="14.00">Богословский, Павел Степанович</text>
</g>
<!-- История металлургии Урала&#45;&gt;Богословский, Павел Степанович -->
<g id="edge12" class="edge">
<title>История металлургии Урала&#45;&gt;Богословский, Павел Степанович</title>
<path fill="none" stroke="black" d="M1655.05,-145.46C1692.25,-135.01 1741.53,-121.15 1781.08,-110.04"/>
<polygon fill="black" stroke="black" points="1781.82,-113.46 1790.5,-107.39 1779.93,-106.72 1781.82,-113.46"/>
</g>
<!-- ICILS -->
<g id="node14" class="node">
<title>ICILS</title>
<ellipse fill="none" stroke="black" cx="2046.79" cy="-90" rx="33.95" ry="18"/>
<text text-anchor="middle" x="2046.79" y="-84.95" font-family="Times New Roman,serif" font-size="14.00">ICILS</text>
</g>
<!-- Список стран по выплавке стали&#45;&gt;ICILS -->
<g id="edge13" class="edge">
<title>Список стран по выплавке стали&#45;&gt;ICILS</title>
<path fill="none" stroke="black" d="M2113.49,-144.05C2101.54,-134.55 2086.51,-122.59 2073.74,-112.44"/>
<polygon fill="black" stroke="black" points="2076.12,-109.85 2066.11,-106.37 2071.76,-115.33 2076.12,-109.85"/>
</g>
<!-- PIRLS -->
<g id="node15" class="node">
<title>PIRLS</title>
<ellipse fill="none" stroke="black" cx="2134.79" cy="-90" rx="36" ry="18"/>
<text text-anchor="middle" x="2134.79" y="-84.95" font-family="Times New Roman,serif" font-size="14.00">PIRLS</text>
</g>
<!-- Список стран по выплавке стали&#45;&gt;PIRLS -->
<g id="edge14" class="edge">
<title>Список стран по выплавке стали&#45;&gt;PIRLS</title>
<path fill="none" stroke="black" d="M2134.79,-143.7C2134.79,-136.41 2134.79,-127.73 2134.79,-119.54"/>
<polygon fill="black" stroke="black" points="2138.29,-119.62 2134.79,-109.62 2131.29,-119.62 2138.29,-119.62"/>
</g>
<!-- Polity IV -->
<g id="node16" class="node">
<title>Polity IV</title>
<ellipse fill="none" stroke="black" cx="2233.79" cy="-90" rx="45.21" ry="18"/>
<text text-anchor="middle" x="2233.79" y="-84.95" font-family="Times New Roman,serif" font-size="14.00">Polity IV</text>
</g>
<!-- Список стран по выплавке стали&#45;&gt;Polity IV -->
<g id="edge15" class="edge">
<title>Список стран по выплавке стали&#45;&gt;Polity IV</title>
<path fill="none" stroke="black" d="M2159.01,-143.88C2172.22,-134.54 2188.71,-122.88 2202.84,-112.88"/>
<polygon fill="black" stroke="black" points="2204.8,-115.78 2210.95,-107.15 2200.76,-110.07 2204.8,-115.78"/>
</g>
<!-- TIMSS -->
<g id="node17" class="node">
<title>TIMSS</title>
<ellipse fill="none" stroke="black" cx="2335.79" cy="-90" rx="38.56" ry="18"/>
<text text-anchor="middle" x="2335.79" y="-84.95" font-family="Times New Roman,serif" font-size="14.00">TIMSS</text>
</g>
<!-- Список стран по выплавке стали&#45;&gt;TIMSS -->
<g id="edge16" class="edge">
<title>Список стран по выплавке стали&#45;&gt;TIMSS</title>
<path fill="none" stroke="black" d="M2182.38,-144.61C2212.59,-134.18 2252.51,-120.36 2287.79,-108 2290.17,-107.17 2292.6,-106.31 2295.06,-105.45"/>
<polygon fill="black" stroke="black" points="2296.15,-108.77 2304.42,-102.15 2293.82,-102.17 2296.15,-108.77"/>
</g>
<!-- Wayback Machine -->
<g id="node18" class="node">
<title>Wayback Machine</title>
<ellipse fill="none" stroke="black" cx="2472.79" cy="-90" rx="80.52" ry="18"/>
<text text-anchor="middle" x="2472.79" y="-84.95" font-family="Times New Roman,serif" font-size="14.00">Wayback Machine</text>
</g>
<!-- Чёрная металлургия России&#45;&gt;Wayback Machine -->
<g id="edge17" class="edge">
<title>Чёрная металлургия России&#45;&gt;Wayback Machine</title>
<path fill="none" stroke="black" d="M2626.14,-144.94C2596.16,-134.4 2556.86,-120.57 2525.55,-109.56"/>
<polygon fill="black" stroke="black" points="2526.86,-106.31 2516.27,-106.29 2524.54,-112.91 2526.86,-106.31"/>
</g>
<!-- World Steel Association -->
<g id="node19" class="node">
<title>World Steel Association</title>
<ellipse fill="none" stroke="black" cx="2671.79" cy="-90" rx="100.48" ry="18"/>
<text text-anchor="middle" x="2671.79" y="-84.95" font-family="Times New Roman,serif" font-size="14.00">World Steel Association</text>
</g>
<!-- Чёрная металлургия России&#45;&gt;World Steel Association -->
<g id="edge18" class="edge">
<title>Чёрная металлургия России&#45;&gt;World Steel Association</title>
<path fill="none" stroke="black" d="M2671.79,-143.7C2671.79,-136.41 2671.79,-127.73 2671.79,-119.54"/>
<polygon fill="black" stroke="black" points="2675.29,-119.62 2671.79,-109.62 2668.29,-119.62 2675.29,-119.62"/>
</g>
<!-- Авиационная промышленность России -->
<g id="node20" class="node">
<title>Авиационная промышленность России</title>
<ellipse fill="none" stroke="black" cx="2960.79" cy="-90" rx="170.09" ry="18"/>
<text text-anchor="middle" x="2960.79" y="-84.95" font-family="Times New Roman,serif" font-size="14.00">Авиационная промышленность России</text>
</g>
<!-- Чёрная металлургия России&#45;&gt;Авиационная промышленность России -->
<g id="edge19" class="edge">
<title>Чёрная металлургия России&#45;&gt;Авиационная промышленность России</title>
<path fill="none" stroke="black" d="M2733.79,-145.98C2777.63,-135.37 2836.7,-121.06 2883.59,-109.7"/>
<polygon fill="black" stroke="black" points="2884.26,-113.14 2893.15,-107.38 2882.61,-106.34 2884.26,-113.14"/>
</g>
<!-- Автомобильная промышленность России -->
<g id="node21" class="node">
<title>Автомобильная промышленность России</title>
<ellipse fill="none" stroke="black" cx="3327.79" cy="-90" rx="178.79" ry="18"/>
<text text-anchor="middle" x="3327.79" y="-84.95" font-family="Times New Roman,serif" font-size="14.00">Автомобильная промышленность России</text>
</g>
<!-- Чёрная металлургия России&#45;&gt;Автомобильная промышленность России -->
<g id="edge20" class="edge">
<title>Чёрная металлургия России&#45;&gt;Автомобильная промышленность России</title>
<path fill="none" stroke="black" d="M2769.29,-150.6C2882.85,-138.48 3070.93,-118.41 3197.07,-104.95"/>
<polygon fill="black" stroke="black" points="3197.24,-108.45 3206.81,-103.91 3196.5,-101.49 3197.24,-108.45"/>
</g>
<!-- Аустенит -->
<g id="node22" class="node">
<title>Аустенит</title>
<ellipse fill="none" stroke="black" cx="48.79" cy="-18" rx="48.79" ry="18"/>
<text text-anchor="middle" x="48.79" y="-12.95" font-family="Times New Roman,serif" font-size="14.00">Аустенит</text>
</g>
<!-- Диаграмма состояния сплавов железо&#45;углерод&#45;&gt;Аустенит -->
<g id="edge21" class="edge">
<title>Диаграмма состояния сплавов железо&#45;углерод&#45;&gt;Аустенит</title>
<path fill="none" stroke="black" d="M287.62,-73.51C234.69,-63.89 166.64,-50.59 106.79,-36 103.43,-35.18 99.98,-34.29 96.51,-33.36"/>
<polygon fill="black" stroke="black" points="97.5,-30.01 86.93,-30.71 95.63,-36.75 97.5,-30.01"/>
</g>
<!-- Бейнит -->
<g id="node23" class="node">
<title>Бейнит</title>
<ellipse fill="none" stroke="black" cx="155.79" cy="-18" rx="40.09" ry="18"/>
<text text-anchor="middle" x="155.79" y="-12.95" font-family="Times New Roman,serif" font-size="14.00">Бейнит</text>
</g>
<!-- Диаграмма состояния сплавов железо&#45;углерод&#45;&gt;Бейнит -->
<g id="edge22" class="edge">
<title>Диаграмма состояния сплавов железо&#45;углерод&#45;&gt;Бейнит</title>
<path fill="none" stroke="black" d="M321.53,-72.33C287.62,-62.14 243.61,-48.68 204.79,-36 202.39,-35.22 199.93,-34.4 197.45,-33.57"/>
<polygon fill="black" stroke="black" points="198.61,-30.27 188.01,-30.36 196.35,-36.89 198.61,-30.27"/>
</g>
<!-- Белый чугун -->
<g id="node24" class="node">
<title>Белый чугун</title>
<ellipse fill="none" stroke="black" cx="276.79" cy="-18" rx="62.61" ry="18"/>
<text text-anchor="middle" x="276.79" y="-12.95" font-family="Times New Roman,serif" font-size="14.00">Белый чугун</text>
</g>
<!-- Диаграмма состояния сплавов железо&#45;углерод&#45;&gt;Белый чугун -->
<g id="edge23" class="edge">
<title>Диаграмма состояния сплавов железо&#45;углерод&#45;&gt;Белый чугун</title>
<path fill="none" stroke="black" d="M352.83,-71.7C339.73,-62.62 323.52,-51.38 309.43,-41.62"/>
<polygon fill="black" stroke="black" points="311.54,-38.83 301.33,-36.01 307.56,-44.58 311.54,-38.83"/>
</g>
<!-- Бернштейн, Марк Львович -->
<g id="node25" class="node">
<title>Бернштейн, Марк Львович</title>
<ellipse fill="none" stroke="black" cx="477.79" cy="-18" rx="120.45" ry="18"/>
<text text-anchor="middle" x="477.79" y="-12.95" font-family="Times New Roman,serif" font-size="14.00">Бернштейн, Марк Львович</text>
</g>
<!-- Диаграмма состояния сплавов железо&#45;углерод&#45;&gt;Бернштейн, Марк Львович -->
<g id="edge24" class="edge">
<title>Диаграмма состояния сплавов железо&#45;углерод&#45;&gt;Бернштейн, Марк Львович</title>
<path fill="none" stroke="black" d="M402.51,-71.7C415.11,-62.88 430.6,-52.03 444.26,-42.47"/>
<polygon fill="black" stroke="black" points="445.93,-45.57 452.12,-36.97 441.92,-39.84 445.93,-45.57"/>
</g>
<!-- Агломашина -->
<g id="node26" class="node">
<title>Агломашина</title>
<ellipse fill="none" stroke="black" cx="678.79" cy="-18" rx="62.1" ry="18"/>
<text text-anchor="middle" x="678.79" y="-12.95" font-family="Times New Roman,serif" font-size="14.00">Агломашина</text>
</g>
<!-- Сыродутная печь&#45;&gt;Агломашина -->
<g id="edge25" class="edge">
<title>Сыродутная печь&#45;&gt;Агломашина</title>
<path fill="none" stroke="black" d="M816.6,-73.81C789.62,-63.08 753.32,-48.64 724.75,-37.28"/>
<polygon fill="black" stroke="black" points="726.2,-34.09 715.62,-33.65 723.62,-40.59 726.2,-34.09"/>
</g>
<!-- Агрегат «ковш&#45;печь» -->
<g id="node27" class="node">
<title>Агрегат «ковш&#45;печь»</title>
<ellipse fill="none" stroke="black" cx="854.79" cy="-18" rx="96.39" ry="18"/>
<text text-anchor="middle" x="854.79" y="-12.95" font-family="Times New Roman,serif" font-size="14.00">Агрегат «ковш&#45;печь»</text>
</g>
<!-- Сыродутная печь&#45;&gt;Агрегат «ковш&#45;печь» -->
<g id="edge26" class="edge">
<title>Сыродутная печь&#45;&gt;Агрегат «ковш&#45;печь»</title>
<path fill="none" stroke="black" d="M854.79,-71.7C854.79,-64.41 854.79,-55.73 854.79,-47.54"/>
<polygon fill="black" stroke="black" points="858.29,-47.62 854.79,-37.62 851.29,-47.62 858.29,-47.62"/>
</g>
<!-- Альпы -->
<g id="node28" class="node">
<title>Альпы</title>
<ellipse fill="none" stroke="black" cx="1007.79" cy="-18" rx="38.56" ry="18"/>
<text text-anchor="middle" x="1007.79" y="-12.95" font-family="Times New Roman,serif" font-size="14.00">Альпы</text>
</g>
<!-- Сыродутная печь&#45;&gt;Альпы -->
<g id="edge27" class="edge">
<title>Сыродутная печь&#45;&gt;Альпы</title>
<path fill="none" stroke="black" d="M889.13,-73.29C913.49,-62.15 946.15,-47.2 971.03,-35.82"/>
<polygon fill="black" stroke="black" points="972.16,-39.15 979.8,-31.81 969.25,-32.78 972.16,-39.15"/>
</g>
<!-- Аммосовская печь -->
<g id="node29" class="node">
<title>Аммосовская печь</title>
<ellipse fill="none" stroke="black" cx="1150.79" cy="-18" rx="86.67" ry="18"/>
<text text-anchor="middle" x="1150.79" y="-12.95" font-family="Times New Roman,serif" font-size="14.00">Аммосовская печь</text>
</g>
<!-- Сыродутная печь&#45;&gt;Аммосовская печь -->
<g id="edge28" class="edge">
<title>Сыродутная печь&#45;&gt;Аммосовская печь</title>
<path fill="none" stroke="black" d="M908.74,-76.24C958.01,-64.59 1031.03,-47.32 1083.98,-34.8"/>
<polygon fill="black" stroke="black" points="1084.56,-38.26 1093.48,-32.55 1082.94,-31.45 1084.56,-38.26"/>
</g>
<!-- Домна (значения) -->
<g id="node30" class="node">
<title>Домна (значения)</title>
<ellipse fill="none" stroke="black" cx="1337.79" cy="-18" rx="82.57" ry="18"/>
<text text-anchor="middle" x="1337.79" y="-12.95" font-family="Times New Roman,serif" font-size="14.00">Домна (значения)</text>
</g>
<!-- Доменная печь&#45;&gt;Домна (значения) -->
<g id="edge29" class="edge">
<title>Доменная печь&#45;&gt;Домна (значения)</title>
<path fill="none" stroke="black" d="M1078.37,-77.2C1131.2,-65.35 1212.84,-47.03 1270.4,-34.12"/>
<polygon fill="black" stroke="black" points="1271.1,-37.55 1280.1,-31.94 1269.57,-30.72 1271.1,-37.55"/>
</g>
</g>
</svg>
